<svg xmlns="http://www.w3.org/2000/svg" width="256" height="256" viewBox="0 0 100 100"><rect width="100" height="100" rx="20" fill="#00dc82"/><path fill="#001e26" d="M44.38 38.07q.33 2.84-.17 5.12-.49 2.27-1.02 3.79-1.12 2.91-3.04 5.31-1.91 2.41-4.19 4.2-2.28 1.78-4.72 2.97-2.44 1.18-4.55 1.65-.53.13-1.09.23t-.5-.04q-.13-.13.4-.39.53-.27.99-.46 3.7-1.79 6.93-4.23 3.23-2.44 5.54-5.87 1.13-1.65 1.98-3.67.86-2.01 1.19-4.19.33-2.17 0-4.45-.33-2.28-1.52-4.46-1.51-2.77-3.89-4.52-2.38-1.75-5.21-2.64-2.84-.89-5.84-1.05-3.01-.17-5.78.29-.4.07-.46.07-.07 0-.2-.07 0-.13.23-.19.23-.07.43-.2 1.19-.53 3.14-.89 1.94-.37 4.32-.23 2.37.13 5.05.89 2.67.76 5.38 2.54 2.7 1.78 4.45 4.65t2.15 5.84zm-4.16-2.77q.59 1.58.69 3.17.1 1.58-.13 3.07-.23 1.48-.73 2.83-.49 1.36-1.15 2.41-.13.14-.33.43l-.4.6q-.2.29-.39.46-.2.16-.27.1-.06 0 .04-.27.09-.26.19-.59.1-.33.23-.59.14-.27.2-.4.6-1.12.79-2.74.2-1.62.1-3.33-.1-1.72-.52-3.34-.43-1.61-1.23-2.67-.26-.39-1.05-1.22-.79-.82-2.11-1.75-1.32-.92-3.11-1.71-1.78-.8-4.02-.99-2.18-.2-4.39-.1-2.21.1-4.16.43-1.95.33-3.43.79-1.49.46-2.21.86-.33.19-.63.26t-.3 0q-.06-.13.14-.33.19-.2.33-.33 1.05-1.06 3.2-1.98 2.14-.92 4.75-1.49 2.61-.56 5.35-.59 2.73-.03 4.91.69 1.39.47 2.87 1.22 1.49.76 2.78 1.82 1.28 1.06 2.34 2.38 1.05 1.32 1.65 2.9zM17.65 59.46q.52-2.97 1.42-6.04l1.81-6.24q.92-2.97 1.72-6.07.79-3.1.92-6.67 0-.33.03-.33h.1q.07 0 .2.4.73 1.65.56 4.39-.16 2.74-.76 5.67-.59 2.94-1.35 5.68-.76 2.74-1.16 4.32-.33 1.19-.59 2.21-.26 1.03-.59 2.15 2.37-1.59 4.65-3.2 2.28-1.62 4.26-3.44 1.98-1.81 3.53-3.86 1.55-2.04 2.47-4.42 1.52-3.96-.1-7.16-1.61-3.2-6.1-4.59-3.37-.99-6.8-.99.59 2.25.56 4.89-.03 2.64-.56 4.42-.92 3.5-2.24 7.16-1.32 3.66-2.64 6.83-.07.13-.33.66-.27.53-.47.46-.13 0-.06-.56.06-.56.06-.69.07-.79.27-1.91.2-1.13.39-2.31.2-1.19.47-2.35.26-1.15.59-1.94.13-.47.53-2.12.39-1.65.79-3.82.4-2.18.73-4.53.33-2.34.46-4.19-.53 0-.79.07.06 2.71-.5 5.51-.56 2.81-1.42 5.68-.86 2.87-1.85 5.77-.99 2.91-1.65 5.74-.52 2.18-.79 4.62-.26 2.45-.2 4.89.07 2.44.6 4.78.53 2.35 1.58 4.33.2.33.04.29-.17-.03-.37-.16-1.78-2.05-2.64-4.49-.86-2.44-1.05-5.05-.2-2.61.16-5.31.36-2.71.96-5.28.66-2.77 1.52-5.55.85-2.77 1.65-5.44.79-2.67 1.48-5.22.69-2.54 1.02-4.98-1.91.27-3.69.76-1.78.5-3.43 1.02-.53.14-.6 0-.06-.13.17-.26t.29-.2q1.85-1.12 4.13-1.88 2.28-.76 4.72-1.06 2.44-.29 5.01-.13 2.58.17 5.09.89 2.64.8 4.35 2.45 1.72 1.65 2.54 3.72.83 2.08.7 4.43-.14 2.34-1.19 4.52-1.39 2.77-3.5 5.05-2.11 2.27-4.72 4.19-2.61 1.91-5.54 3.53-2.94 1.62-5.84 3.07-.14.06-.73.29-.59.24-.66.1 0-.06.36-.36.37-.3.76-.56.99-.53 1.26-1.58zm4.42.79q.99-.53 2.47-1.39 1.49-.86 2.87-1.65 1.39-.79 2.41-1.32 1.03-.53 1.09-.39.07.06-.23.42-.3.37-.76.8-.46.43-.92.82-.46.4-.73.6-1.32.92-2.6 1.65-1.29.72-2.61 1.32-1.12.52-2.28.92-1.15.4-2.34.86-.33.92-.56 1.85-.23.92-.43 1.71-.07.33-.17.66t-.16.33q-.13-.06-.17-.49-.03-.43-.03-.7v-1.42q0-.82.07-1.41-.47.13-.89.39-.43.27-.37.79 0 1.98.2 3.57.33 2.24 1.19 4.29.06.13.16.33t.04.26q-.14.07-.6-.26-.72-.93-1.25-1.82t-.86-2.74q-.13-.59-.16-1.58-.04-.99.03-1.85 0-.53.2-.92.19-.4.85-.73.4-.2 1.36-.63l2.01-.89q1.06-.46 1.95-.85.89-.4 1.22-.53zm37.55-35.11q-.26-.6-.13-.6.2 0 .46.3.27.3.33.36.66.99 1.45 2.15.8 1.15 1.52 2.74.73 1.58 1.32 3.66.6 2.08.93 4.92.39 3.23.16 6.36-.23 3.14-.76 6.31-.06.13-.13.66t-.26.53q-.14 0-.27-.5-.13-.49-.13-.69-.13-.73-.26-1.72-.14-.99-.23-2.08-.1-1.09-.14-2.11-.03-1.02-.03-1.81 0-.27-.03-1.16-.04-.89-.1-2.08-.07-1.19-.23-2.61-.17-1.41-.37-2.8.14 2.05 0 4.09-.13 2.05-.33 4.13-.19 2.08-.33 4.15-.13 2.08 0 4.2.2 4.09 1.65 8.31 1.46 4.23 4.62 7.2.4.39.33.39-.13.07-.46-.13-2.31-1.32-3.83-3.17-1.51-1.85-2.47-4.02-.96-2.18-1.42-4.53-.46-2.34-.53-4.71 0-.2-.03-.37-.03-.16-.03-.36-1.32 3.76-2.94 7.26-1.62 3.5-3.17 6.73-1.55 3.24-2.9 6.11-1.36 2.87-2.15 5.31-.13.33-.2.33-.13 0-.13-.2v-.26q.07-3.1 1.26-6.5 1.18-3.4 2.8-7.07 1.62-3.66 3.4-7.52 1.78-3.86 3.1-7.89.79-2.57 1.36-5.34.56-2.77.69-5.55.13-2.77-.2-5.44-.33-2.67-1.19-4.98zm8.19 38.01q.72 1.52 1.91 2.84.46-2.77 1.78-5.51 1.32-2.74 3.01-5.51 1.68-2.77 3.53-5.55 1.84-2.77 3.43-5.61 1.19-2.04 2.01-4.42.83-2.37 1.19-4.85.36-2.47.2-4.92-.17-2.44-1.03-4.62-.19-.33-.06-.46t.43.17q.29.29.36.43.79 1.12 1.29 2.93.49 1.82.72 4.03.23 2.21.23 4.65 0 2.44-.19 4.89-.27 3.23-.96 7.06-.69 3.83-1.68 6.99-.07.14-.23.6-.17.46-.37.46-.13-.07-.2-.56-.06-.5-.06-.63 0-.72.03-1.75.03-1.02.1-2.11.07-1.09.17-2.11.09-1.02.23-1.75.06-.4.23-1.82.16-1.41.29-3.2-.79 1.85-1.25 3.3-.46 1.46-.79 2.84-.33 1.39-.56 2.91-.23 1.51-.43 3.56-.2 2.05-.17 4.29.04 2.24.47 4.42.42 2.18 1.25 4.26.82 2.08 2.14 3.79.27.4.14.47-.14.06-.33-.14-2.12-1.71-3.34-3.86-1.22-2.14-1.81-4.52-.6-2.37-.63-4.85-.03-2.47.23-4.85.13-.86.23-1.72.1-.85.23-1.78-1.51 2.44-3.03 4.75Q75 58 73.68 60.28q-1.32 2.28-2.34 4.49-1.03 2.21-1.55 4.39l-.14.33q-.13 0-.13-.27v-1.38q0-.53.13-1.06-.52-.26-.92-.49-.4-.23-.76-.56-.36-.33-.72-.8-.37-.46-.76-1.18-.33-.66-.66-1.59-.33-.92-.56-1.81-.24-.89-.27-1.52-.03-.63.17-.63.13 0 .29.23.17.23.37.56.19.33.33.66.13.33.19.47.33.79.7 1.55.36.76.76 1.48zm1.38-12.87v.66q1.45-2.84 3.01-5.51 1.55-2.67 2.47-4.26 1.58-2.83 3.3-5.57 1.72-2.74 2.97-4.85.13-.33.3-.6.16-.26.29-.13.14 0 .07.33t-.13.66q-.93 4.75-3.33 8.98-2.41 4.22-5.05 8.51-.93 1.45-1.62 2.41-.69.96-1.19 1.85-.49.89-.82 1.94-.33 1.06-.47 2.71.27-.73.6-1.39.33-.66.66-1.25 1.85-3.17 4.16-6.34 2.31-3.16 4.55-5.94.13-.13.5-.56.36-.43.49-.36t-.03.59q-.17.53-.23.8-.33.72-.83 1.78-.49 1.05-1.05 2.14-.57 1.09-1.16 2.11-.59 1.03-1.06 1.69-.26.39-1.12 1.58-.86 1.19-1.85 2.97-.99 1.78-1.94 4.03-.96 2.24-1.42 4.75-.2-.4-.5-.99-.29-.59-.69-1.91-1.19-4.16-1.29-8.42-.1-4.26-.03-8.74.07-2.84.03-5.68-.03-2.84-.95-6.01-.07-.26 0-.39.13 0 .39.39 1.19 1.26 1.78 3.67.6 2.41.86 5.08.27 2.67.3 5.21.03 2.54.03 4.06zM51.83 45.2q1.13-3.43 2.55-6.93 1.41-3.5 2.47-6.27.13-.33.3-.66.16-.33.29-.26.14 0 .1.42-.03.43-.03.76-.59 5.42-2.38 10.76-1.78 5.35-3.96 10.56-1.32 3.3-2.83 6.63-1.52 3.34-2.51 7.23-.13.33-.1.4.03.06-.03.06-.2-.13-.2-.59-.33-1.98.39-4.98.73-3.01 1.85-6.21t2.31-6.14q1.19-2.93 1.78-4.78zM49 60.91q1.65-3.76 3.56-7.76 1.91-3.99 3.7-7.62.06-.2.36-.73.3-.52.56-.46.13 0 .07.6-.07.59-.2.85-.2.93-.53 2.21-.33 1.29-.76 2.64-.43 1.36-.89 2.64-.46 1.29-.86 2.15-.2.4-.69 1.68l-1.19 3.07q-.69 1.78-1.45 3.8-.76 2.01-1.42 3.82-.66 1.82-1.15 3.24-.5 1.42-.57 2.01-.13.66-.26.66t-.16-.26q-.04-.27-.1-.4-.33-.79-.3-2.31.03-1.52.36-3.23.33-1.72.83-3.5.49-1.78 1.09-3.1zm39.33-5.68q-.33 2.97-1.02 5.94t-1.22 5.28q-.27.86-.4.79-.13 0-.16-.29-.04-.3-.1-.63-.53-4.42.13-8.84.66-4.43 1.45-9.05.53-2.77.86-5.71.33-2.93 0-6.3 0-.26.13-.39.13 0 .17.16.03.17.16.23.99 1.45 1.16 3.99.16 2.55-.04 5.32-.19 2.77-.56 5.34-.36 2.58-.56 4.16zm-29.9-25.21q-.13-1.39-.36-2.57-.23-1.19-.56-2.45-.07-.13-.07-.33 0-.19.07-.19.2 0 .4.19l.26.27q.73.99 1.19 1.94.46.96.59 3.14.07.86 0 2.11-.06 1.26-.23 2.38-.16 1.12-.39 1.91-.24.79-.43.73-.14 0-.2-.37-.07-.36-.1-.82-.03-.46-.03-.96v-2.84q0-1.02-.14-2.14zm24.16-.86q-.07-1.19-.23-2.24-.17-1.06-.5-2.18-.06-.13-.09-.33-.04-.2.09-.13.14.13.24.2.09.06.23.13l.13.13q.72.92 1.15 1.78.43.86.5 2.84 0 .73-.17 1.85-.16 1.12-.39 2.14-.23 1.03-.53 1.72-.3.69-.56.56-.13-.07-.13-.43v-.79q0-.43.06-.83.07-.39.07-.59.13-1.06.16-1.98.04-.92-.03-1.85zm2.31 39.07q.4 1.13.89 2.05.5.92 1.02 1.85.07.06.14.23.06.16-.07.16-.2 0-.3-.06-.1-.07-.23-.13-.13-.07-.2-.14-.92-.72-1.51-1.38-.6-.66-1.19-2.38-.2-.66-.4-1.65-.2-.99-.26-1.91-.07-.93 0-1.59.06-.66.33-.66.06 0 .2.3.13.3.23.66.1.36.2.73.09.36.16.49.33.93.53 1.78.2.86.46 1.65z"/></svg>