<svg version="1.0" xmlns="http://www.w3.org/2000/svg" width="933.333" height="933.333" viewBox="0 0 700 700"><path d="M124 .7c-8 .9-26.4 5.6-34.3 8.7-23 9-43 23.5-58.1 42.1-7.2 8.9-6.5 7.9-11 15.4-8 13.1-13 25.6-17.4 43.1L.5 120.5.3 346C.1 576.5 0 572.3 3.5 591c1.3 7.4 7.8 24.9 12.5 33.9 11 20.9 26.5 38.2 45.7 51.2 4 2.7 7.4 4.9 7.7 4.9.3 0 2.7 1.3 5.5 2.9 7 4.2 22.7 9.9 35.6 13l11 2.6h457l11.5-2.7c41.9-10 74.5-35 94-72.1 4.3-8.1 9.3-20.4 10.5-25.7.1-.8.8-3.3 1.4-5.5.6-2.2 1.3-5.8 1.7-8 .3-2.2 1-6 1.4-8.5.5-2.5.9-104.8.9-227.5 0-211-.1-223.5-1.8-232.5-2-10.5-4.8-21.3-6.1-23.8-.4-1-2-4.7-3.5-8.4-10.4-26-32.8-51.3-58.2-65.8-13.2-7.6-30.6-14.1-43.8-16.5-1.6-.2-4.1-.8-5.5-1.2C578.5.5 130.5 0 124 .7z"/></svg>