<svg width="300" height="90" fill="none" xmlns="http://www.w3.org/2000/svg"><path d="M281.788 60.866c-3 0-5.602-.55-7.804-1.652-2.175-1.1-3.868-2.615-5.079-4.542-1.184-1.955-1.776-4.198-1.776-6.731 0-2.56.44-4.887 1.321-6.979.909-2.12 2.175-3.95 3.799-5.492 1.625-1.542 3.552-2.725 5.782-3.551 2.229-.854 4.666-1.28 7.309-1.28 3 0 5.588.55 7.763 1.651 2.202 1.102 3.895 2.63 5.079 4.584 1.211 1.927 1.817 4.157 1.817 6.69 0 2.56-.454 4.9-1.363 7.02a15.98 15.98 0 01-3.757 5.45c-1.625 1.542-3.552 2.74-5.782 3.593-2.229.826-4.666 1.24-7.309 1.24zm.826-7.887c1.212 0 2.271-.234 3.18-.702a7.105 7.105 0 002.395-1.941 8.6 8.6 0 001.487-2.808 11.46 11.46 0 00.495-3.386c0-1.129-.234-2.106-.702-2.932a4.643 4.643 0 00-1.941-1.982c-.826-.468-1.83-.702-3.014-.702-1.184 0-2.244.234-3.18.702a7.105 7.105 0 00-2.395 1.94 8.531 8.531 0 00-1.487 2.85 11.056 11.056 0 00-.495 3.345c0 1.101.22 2.078.661 2.932a4.985 4.985 0 001.94 1.982c.854.468 1.872.702 3.056.702zm-49.313 7.228l5.781-28.906h8.011l10.86 17.591h-3.386l3.51-17.591h9.498l-5.781 28.906h-8.011l-10.861-17.592h3.386l-3.51 17.592h-9.497zm-13.461 0l5.781-28.906h9.745l-5.781 28.906h-9.745zm-14.695.659a31.45 31.45 0 01-4.914-.372c-1.569-.247-3.001-.591-4.295-1.032-1.266-.468-2.367-.977-3.303-1.528l3.758-7.185a24.311 24.311 0 003.221 1.528c1.101.385 2.188.674 3.262.867 1.101.193 2.188.29 3.262.29.853 0 1.555-.07 2.106-.207.578-.138 1.005-.33 1.28-.578.303-.276.454-.579.454-.909 0-.44-.247-.798-.743-1.074-.495-.275-1.156-.523-1.982-.743a55.12 55.12 0 00-2.684-.66 32.331 32.331 0 01-2.932-.91c-.991-.385-1.9-.866-2.725-1.444a6.738 6.738 0 01-1.941-2.189c-.496-.88-.744-1.955-.744-3.22 0-2.203.579-4.117 1.735-5.74 1.184-1.625 2.863-2.878 5.038-3.759 2.202-.908 4.817-1.362 7.846-1.362 2.147 0 4.143.22 5.987.66 1.872.413 3.483 1.019 4.832 1.817l-3.51 7.103a13.752 13.752 0 00-3.799-1.61 16.04 16.04 0 00-4.13-.537c-.936 0-1.72.096-2.354.289-.633.165-1.115.399-1.445.702-.303.302-.454.62-.454.95 0 .44.248.812.743 1.114.496.276 1.156.523 1.982.744.826.192 1.721.413 2.684.66.991.22 1.969.51 2.932.868.991.33 1.9.784 2.726 1.362a6.189 6.189 0 011.982 2.148c.495.853.743 1.913.743 3.18 0 2.147-.592 4.032-1.776 5.657-1.183 1.596-2.876 2.849-5.079 3.757-2.175.909-4.762 1.363-7.763 1.363zm-46.915-.659L176.648 31.3h9.58l6.855 28.906h-9.704l-4.667-24.405h3.799l-13.998 24.405H158.23zm8.507-5.038l3.882-7.02h13.296l1.074 7.02h-18.252z" fill="#1E1E1E"/><path d="M148.45 60.866c-2.974 0-5.575-.537-7.805-1.61-2.23-1.102-3.964-2.616-5.203-4.543-1.211-1.954-1.817-4.212-1.817-6.772 0-2.533.44-4.859 1.321-6.979.909-2.12 2.175-3.95 3.799-5.492 1.625-1.542 3.552-2.725 5.782-3.551 2.23-.854 4.68-1.28 7.35-1.28 2.781 0 5.244.495 7.392 1.486 2.147.991 3.744 2.423 4.79 4.295l-7.02 5.492c-.606-1.074-1.39-1.9-2.354-2.478-.963-.605-2.106-.908-3.427-.908-1.157 0-2.216.22-3.18.66a6.818 6.818 0 00-2.436 1.818c-.689.77-1.225 1.693-1.611 2.766-.385 1.074-.578 2.258-.578 3.551 0 1.13.248 2.12.743 2.974a5.117 5.117 0 002.065 1.982c.909.468 1.955.702 3.138.702 1.129 0 2.23-.262 3.304-.785 1.101-.523 2.147-1.376 3.138-2.56l5.74 5.492c-1.762 2.148-3.73 3.648-5.905 4.501-2.147.826-4.556 1.24-7.226 1.24zM68.267 38.391c-4.526 0-7.547 3.549-7.547 7.519 0 4.239 3.021 7.69 7.547 7.69s7.202-3.376 7.202-7.69c0-3.98-2.602-7.519-7.202-7.519zm-6.533 26.892h-.167v24.304H42.375V23.343h18.188v4.584h.167c3.272-3.807 8.217-5.792 12.575-5.792 13.16 0 20.112 12.103 20.112 23.785 0 11.683-6.868 24.131-20.028 24.131-4.359 0-8.969-1.726-11.644-4.757" fill="#1E1E1E"/><path d="M115.64 23.342H96.281v45.49h19.359v-45.49zM106.089 0c5.278 0 9.888 4.67 9.888 10.205 0 5.533-4.61 10.118-9.888 10.118-5.279 0-10.14-4.412-10.14-10.118C95.95 4.498 100.56 0 106.09 0z" fill="#E41E2E"/><path d="M39.251 54.818c-.752.26-2.258.518-3.523.518-3.271 0-5.195-1.208-5.195-5.62V37.613h18.774V23.34H30.533V13.137H11.76V23.34H0v14.272h11.854v16.256c0 10.981 5.697 16.17 17.425 16.17 4.024 0 7.965-.69 9.972-1.553V54.818z" fill="#1E1E1E"/></svg>