<?xml version="1.0" encoding="utf-8"?><svg xmlns="http://www.w3.org/2000/svg" xmlns:xlink="http://www.w3.org/1999/xlink"><symbol viewBox="0 0 26 16" id="arrow-left" xmlns="http://www.w3.org/2000/svg"><path d="M.293 7.293a1 1 0 000 1.414l6.364 6.364a1 1 0 001.414-1.414L2.414 8l5.657-5.657A1 1 0 006.657.93L.293 7.293zM26 7H1v2h25V7z"/></symbol><symbol viewBox="0 0 26 16" id="arrow-right" xmlns="http://www.w3.org/2000/svg"><path d="M25.707 7.293a1 1 0 010 1.414l-6.364 6.364a1 1 0 01-1.414-1.414L23.586 8l-5.657-5.657A1 1 0 0119.343.93l6.364 6.364zM0 7h25v2H0V7z"/></symbol><symbol viewBox="0 0 18 15" id="back" xmlns="http://www.w3.org/2000/svg"><path d="M.273 8.189A.944.944 0 010 7.486c0-.235.078-.47.273-.665L7.148.26c.391-.352.977-.352 1.329.039a.932.932 0 01-.04 1.328L3.242 6.548h13.32a.95.95 0 01.938.938c0 .546-.43.937-.938.937H3.242l5.196 4.961c.39.351.39.938.039 1.328-.352.39-.938.39-1.329.04L.273 8.188z"/></symbol><symbol viewBox="0 0 448 512" id="check" xmlns="http://www.w3.org/2000/svg"><path d="M413.505 91.951L133.49 371.966l-98.995-98.995c-4.686-4.686-12.284-4.686-16.971 0L6.211 284.284c-4.686 4.686-4.686 12.284 0 16.971l118.794 118.794c4.686 4.686 12.284 4.686 16.971 0l299.813-299.813c4.686-4.686 4.686-12.284 0-16.971l-11.314-11.314c-4.686-4.686-12.284-4.686-16.97 0z"/></symbol><symbol viewBox="0 0 448 512" id="chevron-down" xmlns="http://www.w3.org/2000/svg"><path d="M443.5 162.6l-7.1-7.1c-4.7-4.7-12.3-4.7-17 0L224 351 28.5 155.5c-4.7-4.7-12.3-4.7-17 0l-7.1 7.1c-4.7 4.7-4.7 12.3 0 17l211 211.1c4.7 4.7 12.3 4.7 17 0l211-211.1c4.8-4.7 4.8-12.3.1-17z"/></symbol><symbol viewBox="0 0 256 512" id="chevron-left" xmlns="http://www.w3.org/2000/svg"><path d="M238.475 475.535l7.071-7.07c4.686-4.686 4.686-12.284 0-16.971L50.053 256 245.546 60.506c4.686-4.686 4.686-12.284 0-16.971l-7.071-7.07c-4.686-4.686-12.284-4.686-16.97 0L10.454 247.515c-4.686 4.686-4.686 12.284 0 16.971l211.051 211.05c4.686 4.686 12.284 4.686 16.97-.001z"/></symbol><symbol viewBox="0 0 256 512" id="chevron-right" xmlns="http://www.w3.org/2000/svg"><path d="M17.525 36.465l-7.071 7.07c-4.686 4.686-4.686 12.284 0 16.971L205.947 256 10.454 451.494c-4.686 4.686-4.686 12.284 0 16.971l7.071 7.07c4.686 4.686 12.284 4.686 16.97 0l211.051-211.05c4.686-4.686 4.686-12.284 0-16.971L34.495 36.465c-4.686-4.687-12.284-4.687-16.97 0z"/></symbol><symbol viewBox="0 0 448 512" id="chevron-up" xmlns="http://www.w3.org/2000/svg"><path d="M4.465 366.475l7.07 7.071c4.686 4.686 12.284 4.686 16.971 0L224 178.053l195.494 195.493c4.686 4.686 12.284 4.686 16.971 0l7.07-7.071c4.686-4.686 4.686-12.284 0-16.97l-211.05-211.051c-4.686-4.686-12.284-4.686-16.971 0L4.465 349.505c-4.687 4.686-4.687 12.284 0 16.97z"/></symbol><symbol viewBox="0 0 512.001 512.001" id="close" xmlns="http://www.w3.org/2000/svg"><path d="M284.286 256.002L506.143 34.144c7.811-7.811 7.811-20.475 0-28.285-7.811-7.81-20.475-7.811-28.285 0L256 227.717 34.143 5.859c-7.811-7.811-20.475-7.811-28.285 0-7.81 7.811-7.811 20.475 0 28.285l221.857 221.857L5.858 477.859c-7.811 7.811-7.811 20.475 0 28.285a19.938 19.938 0 0014.143 5.857 19.94 19.94 0 0014.143-5.857L256 284.287l221.857 221.857c3.905 3.905 9.024 5.857 14.143 5.857s10.237-1.952 14.143-5.857c7.811-7.811 7.811-20.475 0-28.285L284.286 256.002z"/></symbol><symbol viewBox="0 0 320 512" id="ellipsis-h" xmlns="http://www.w3.org/2000/svg"><path d="M192 256c0 17.7-14.3 32-32 32s-32-14.3-32-32 14.3-32 32-32 32 14.3 32 32zm88-32c-17.7 0-32 14.3-32 32s14.3 32 32 32 32-14.3 32-32-14.3-32-32-32zm-240 0c-17.7 0-32 14.3-32 32s14.3 32 32 32 32-14.3 32-32-14.3-32-32-32z"/></symbol><symbol viewBox="0 0 64 512" id="ellipsis-v" xmlns="http://www.w3.org/2000/svg"><path d="M32 224c17.7 0 32 14.3 32 32s-14.3 32-32 32-32-14.3-32-32 14.3-32 32-32zM0 136c0 17.7 14.3 32 32 32s32-14.3 32-32-14.3-32-32-32-32 14.3-32 32zm0 240c0 17.7 14.3 32 32 32s32-14.3 32-32-14.3-32-32-32-32 14.3-32 32z"/></symbol><symbol viewBox="0 0 24 24" id="eye-visible" xmlns="http://www.w3.org/2000/svg"><g clip-path="url(#la)"><path d="M0 0h24v24H0z"/><circle cx="12" cy="13" r="2" stroke="currentColor" stroke-linejoin="round"/><path d="M12 7.5c-4.305 0-7.524 3.583-8.605 4.965a.86.86 0 000 1.07C4.476 14.917 7.695 18.5 12 18.5c4.305 0 7.524-3.583 8.605-4.965a.86.86 0 000-1.07C19.524 11.083 16.305 7.5 12 7.5z" stroke="currentColor" stroke-linecap="round" stroke-linejoin="round"/></g><defs><clipPath id="la"><path d="M0 0h24v24H0z"/></clipPath></defs></symbol><symbol viewBox="0 0 256 512" id="long-arrow-down" xmlns="http://www.w3.org/2000/svg"><path d="M252.485 343.03l-7.07-7.071c-4.686-4.686-12.284-4.686-16.971 0L145 419.887V44c0-6.627-5.373-12-12-12h-10c-6.627 0-12 5.373-12 12v375.887l-83.444-83.928c-4.686-4.686-12.284-4.686-16.971 0l-7.07 7.071c-4.686 4.686-4.686 12.284 0 16.97l116 116.485c4.686 4.686 12.284 4.686 16.971 0l116-116.485c4.686-4.686 4.686-12.284-.001-16.97z"/></symbol><symbol viewBox="0 0 448 512" id="long-arrow-left" xmlns="http://www.w3.org/2000/svg"><path d="M136.97 380.485l7.071-7.07c4.686-4.686 4.686-12.284 0-16.971L60.113 273H436c6.627 0 12-5.373 12-12v-10c0-6.627-5.373-12-12-12H60.113l83.928-83.444c4.686-4.686 4.686-12.284 0-16.971l-7.071-7.07c-4.686-4.686-12.284-4.686-16.97 0l-116.485 116c-4.686 4.686-4.686 12.284 0 16.971l116.485 116c4.686 4.686 12.284 4.686 16.97-.001z"/></symbol><symbol viewBox="0 0 448 512" id="long-arrow-right" xmlns="http://www.w3.org/2000/svg"><path d="M311.03 131.515l-7.071 7.07c-4.686 4.686-4.686 12.284 0 16.971L387.887 239H12c-6.627 0-12 5.373-12 12v10c0 6.627 5.373 12 12 12h375.887l-83.928 83.444c-4.686 4.686-4.686 12.284 0 16.971l7.071 7.07c4.686 4.686 12.284 4.686 16.97 0l116.485-116c4.686-4.686 4.686-12.284 0-16.971L328 131.515c-4.686-4.687-12.284-4.687-16.97 0z"/></symbol><symbol viewBox="0 0 256 512" id="long-arrow-up" xmlns="http://www.w3.org/2000/svg"><path d="M3.515 168.97l7.07 7.071c4.686 4.686 12.284 4.686 16.971 0L111 92.113V468c0 6.627 5.373 12 12 12h10c6.627 0 12-5.373 12-12V92.113l83.444 83.928c4.686 4.686 12.284 4.686 16.971 0l7.07-7.071c4.686-4.686 4.686-12.284 0-16.97l-116-116.485c-4.686-4.686-12.284-4.686-16.971 0L3.515 152c-4.687 4.686-4.687 12.284 0 16.97z"/></symbol><symbol viewBox="0 0 512 512" id="question-circle" xmlns="http://www.w3.org/2000/svg"><path d="M256 340c-15.464 0-28 12.536-28 28s12.536 28 28 28 28-12.536 28-28-12.536-28-28-28zm7.67-24h-16c-6.627 0-12-5.373-12-12v-.381c0-70.343 77.44-63.619 77.44-107.408 0-20.016-17.761-40.211-57.44-40.211-29.144 0-44.265 9.649-59.211 28.692-3.908 4.98-11.054 5.995-16.248 2.376l-13.134-9.15c-5.625-3.919-6.86-11.771-2.645-17.177C185.658 133.514 210.842 116 255.67 116c52.32 0 97.44 29.751 97.44 80.211 0 67.414-77.44 63.849-77.44 107.408V304c0 6.627-5.373 12-12 12zM256 40c118.621 0 216 96.075 216 216 0 119.291-96.61 216-216 216-119.244 0-216-96.562-216-216 0-119.203 96.602-216 216-216m0-32C119.043 8 8 119.083 8 256c0 136.997 111.043 248 248 248s248-111.003 248-248C504 119.083 392.957 8 256 8z"/></symbol><symbol viewBox="0 0 511.999 511.999" id="search" xmlns="http://www.w3.org/2000/svg"><path d="M508.874 478.708L360.142 329.976c28.21-34.827 45.191-79.103 45.191-127.309C405.333 90.917 314.416 0 202.666 0S0 90.917 0 202.667s90.917 202.667 202.667 202.667c48.206 0 92.482-16.982 127.309-45.191l148.732 148.732c4.167 4.165 10.919 4.165 15.086 0l15.081-15.082c4.165-4.166 4.165-10.92-.001-15.085zM202.667 362.667c-88.229 0-160-71.771-160-160s71.771-160 160-160 160 71.771 160 160-71.771 160-160 160z"/></symbol><symbol viewBox="0 0 320 512" id="times" xmlns="http://www.w3.org/2000/svg"><path d="M193.94 256L296.5 153.44l21.15-21.15c3.12-3.12 3.12-8.19 0-11.31l-22.63-22.63c-3.12-3.12-8.19-3.12-11.31 0L160 222.06 36.29 98.34c-3.12-3.12-8.19-3.12-11.31 0L2.34 120.97c-3.12 3.12-3.12 8.19 0 11.31L126.06 256 2.34 379.71c-3.12 3.12-3.12 8.19 0 11.31l22.63 22.63c3.12 3.12 8.19 3.12 11.31 0L160 289.94 262.56 392.5l21.15 21.15c3.12 3.12 8.19 3.12 11.31 0l22.63-22.63c3.12-3.12 3.12-8.19 0-11.31L193.94 256z"/></symbol><symbol viewBox="0 0 22 16" id="visibility" xmlns="http://www.w3.org/2000/svg"><path fill-rule="evenodd" clip-rule="evenodd" d="M11.227.093c4.626.065 8.421 4.225 10.322 7.804 0 0-.669 1.368-1.296 2.245-.304.424-.623.837-.959 1.236-.24.285-.486.562-.743.83-2.29 2.407-5.581 4.202-9.056 3.505-3.86-.774-7.009-4.082-8.901-7.64 0 0 .672-1.37 1.303-2.245a19.246 19.246 0 011.63-1.974C5.55 1.72 8.147.078 11.226.093zm-.016 1.75c-2.577-.01-4.72 1.43-6.416 3.216-.23.242-.452.493-.668.749a18.14 18.14 0 00-.81 1.044c-.258.357-.523.807-.732 1.19 1.668 2.804 4.173 5.337 7.254 5.955 2.872.576 5.551-1.007 7.445-2.995a17.013 17.013 0 001.546-1.879c.256-.358.52-.81.729-1.193-1.732-2.898-4.694-6.03-8.348-6.087z"/><path fill-rule="evenodd" clip-rule="evenodd" d="M11.07 4.478a3.51 3.51 0 013.508 3.507 3.51 3.51 0 01-3.508 3.507 3.51 3.51 0 01-3.508-3.507 3.51 3.51 0 013.508-3.507zm0 1.753a1.755 1.755 0 11-.001 3.51 1.755 1.755 0 010-3.51z"/></symbol></svg>